<?xml version="1.0" encoding="UTF-8"?>
<!--Generator: Apple Native CoreSVG 326-->
<!DOCTYPE svg
PUBLIC "-//W3C//DTD SVG 1.1//EN"
       "http://www.w3.org/Graphics/SVG/1.1/DTD/svg11.dtd">
<svg version="1.1" xmlns="http://www.w3.org/2000/svg" xmlns:xlink="http://www.w3.org/1999/xlink" viewBox="0 0 584.961 472.9">
 <g>
  <rect height="472.9" opacity="0" width="584.961" x="0" y="0"/>
  <path d="M584.961 236.328C584.961 229.736 582.275 223.633 576.904 218.506L367.188 8.54492C360.84 2.19727 354.98 0 348.633 0C335.449 0 325.195 9.76562 325.195 22.9492C325.195 29.2969 327.393 35.4004 331.787 39.7949L417.236 126.465L531.25 231.689L536.865 217.773L440.918 212.646L23.4375 212.646C9.76562 212.646 0 222.412 0 236.328C0 250 9.76562 260.01 23.4375 260.01L440.918 260.01L536.865 254.639L531.25 240.967L417.236 346.191L331.787 432.617C327.637 437.012 325.195 443.359 325.195 449.707C325.195 462.891 335.449 472.656 348.633 472.656C354.98 472.656 360.596 470.215 365.967 465.332L576.904 253.906C582.275 249.023 584.961 242.92 584.961 236.328Z" fill="white" fill-opacity="0.85"/>
 </g>
</svg>
