<?xml version="1.0" encoding="UTF-8"?>
<!--Generator: Apple Native CoreSVG 326-->
<!DOCTYPE svg
PUBLIC "-//W3C//DTD SVG 1.1//EN"
       "http://www.w3.org/Graphics/SVG/1.1/DTD/svg11.dtd">
<svg version="1.1" xmlns="http://www.w3.org/2000/svg" xmlns:xlink="http://www.w3.org/1999/xlink" viewBox="0 0 573.975 574.463">
 <g>
  <rect height="574.463" opacity="0" width="573.975" x="0" y="0"/>
  <path d="M56.1523 260.742L204.102 260.742C241.211 260.742 260.254 242.676 260.254 203.857L260.254 57.6172C260.254 18.7988 241.211 0.732422 204.102 0.732422L56.1523 0.732422C19.043 0.732422 0 18.7988 0 57.6172L0 203.857C0 242.676 19.043 260.742 56.1523 260.742ZM56.6406 222.656C44.1895 222.656 38.3301 216.553 38.3301 203.369L38.3301 57.8613C38.3301 44.9219 44.1895 39.0625 56.6406 39.0625L203.369 39.0625C215.82 39.0625 221.924 44.9219 221.924 57.8613L221.924 203.369C221.924 216.553 215.82 222.656 203.369 222.656ZM103.76 163.086L156.006 163.086C160.4 163.086 162.354 161.133 162.354 155.762L162.354 105.225C162.354 100.342 160.4 98.3887 156.006 98.3887L103.76 98.3887C99.3652 98.3887 97.9004 100.342 97.9004 105.225L97.9004 155.762C97.9004 161.133 99.3652 163.086 103.76 163.086ZM369.873 260.742L517.822 260.742C554.932 260.742 573.975 242.676 573.975 203.857L573.975 57.6172C573.975 18.7988 554.932 0.732422 517.822 0.732422L369.873 0.732422C332.52 0.732422 313.721 18.7988 313.721 57.6172L313.721 203.857C313.721 242.676 332.52 260.742 369.873 260.742ZM370.605 222.656C357.666 222.656 352.051 216.553 352.051 203.369L352.051 57.8613C352.051 44.9219 357.666 39.0625 370.605 39.0625L517.334 39.0625C529.785 39.0625 535.645 44.9219 535.645 57.8613L535.645 203.369C535.645 216.553 529.785 222.656 517.334 222.656ZM418.945 163.086L471.191 163.086C475.586 163.086 477.539 161.133 477.539 155.762L477.539 105.225C477.539 100.342 475.586 98.3887 471.191 98.3887L418.945 98.3887C414.551 98.3887 413.086 100.342 413.086 105.225L413.086 155.762C413.086 161.133 414.551 163.086 418.945 163.086ZM56.1523 574.463L204.102 574.463C241.211 574.463 260.254 556.396 260.254 517.578L260.254 371.338C260.254 332.52 241.211 314.209 204.102 314.209L56.1523 314.209C19.043 314.209 0 332.52 0 371.338L0 517.578C0 556.396 19.043 574.463 56.1523 574.463ZM56.6406 536.133C44.1895 536.133 38.3301 530.273 38.3301 517.334L38.3301 371.582C38.3301 358.643 44.1895 352.539 56.6406 352.539L203.369 352.539C215.82 352.539 221.924 358.643 221.924 371.582L221.924 517.334C221.924 530.273 215.82 536.133 203.369 536.133ZM103.76 476.562L156.006 476.562C160.4 476.562 162.354 474.854 162.354 469.482L162.354 418.945C162.354 414.062 160.4 412.109 156.006 412.109L103.76 412.109C99.3652 412.109 97.9004 414.062 97.9004 418.945L97.9004 469.482C97.9004 474.854 99.3652 476.562 103.76 476.562ZM333.984 393.066L385.986 393.066C390.625 393.066 392.334 391.113 392.334 385.986L392.334 335.205C392.334 330.322 390.625 328.613 385.986 328.613L333.984 328.613C329.346 328.613 327.881 330.322 327.881 335.205L327.881 385.986C327.881 391.113 329.346 393.066 333.984 393.066ZM501.221 393.066L553.223 393.066C557.861 393.066 559.57 391.113 559.57 385.986L559.57 335.205C559.57 330.322 557.861 328.613 553.223 328.613L501.221 328.613C496.582 328.613 495.117 330.322 495.117 335.205L495.117 385.986C495.117 391.113 496.582 393.066 501.221 393.066ZM418.213 476.562L470.459 476.562C475.098 476.562 476.807 474.854 476.807 469.482L476.807 418.945C476.807 414.062 475.098 412.109 470.459 412.109L418.213 412.109C413.818 412.109 412.354 414.062 412.354 418.945L412.354 469.482C412.354 474.854 413.818 476.562 418.213 476.562ZM333.984 560.303L385.986 560.303C390.625 560.303 392.334 558.35 392.334 553.223L392.334 502.686C392.334 497.559 390.625 495.85 385.986 495.85L333.984 495.85C329.346 495.85 327.881 497.559 327.881 502.686L327.881 553.223C327.881 558.35 329.346 560.303 333.984 560.303ZM501.221 560.303L553.223 560.303C557.861 560.303 559.57 558.35 559.57 553.223L559.57 502.686C559.57 497.559 557.861 495.85 553.223 495.85L501.221 495.85C496.582 495.85 495.117 497.559 495.117 502.686L495.117 553.223C495.117 558.35 496.582 560.303 501.221 560.303Z" fill="white" fill-opacity="0.85"/>
 </g>
</svg>
